<?xml version="1.0" standalone="no"?>
<!DOCTYPE svg PUBLIC "-//W3C//DTD SVG 20010904//EN"
 "http://www.w3.org/TR/2001/REC-SVG-20010904/DTD/svg10.dtd">
<svg version="1.0" xmlns="http://www.w3.org/2000/svg"
 width="708.000000pt" height="708.000000pt" viewBox="0 0 708.000000 708.000000"
 preserveAspectRatio="xMidYMid meet">
<metadata>
Created by potrace 1.11, written by Peter Selinger 2001-2013
</metadata>
<g transform="translate(0.000000,708.000000) scale(0.100000,-0.100000)"
fill="#000000" stroke="none">
<path d="M5500 5430 l-1132 -830 -1278 0 -1278 0 -15 -42 c-8 -24 -324 -891
-701 -1926 -377 -1036 -686 -1886 -686 -1888 0 -2 1020 -4 2268 -4 l2267 0
701 1928 702 1927 -154 3 c-85 1 -154 5 -154 8 0 4 118 329 261 723 317 869
339 931 335 931 -2 0 -513 -373 -1136 -830z m-206 -2025 l-729 -2005 -374 0
-373 0 5 23 c4 12 271 749 594 1638 l587 1615 506 371 c278 204 507 369 509
367 3 -2 -324 -906 -725 -2009z m-781 478 c-118 -324 -289 -790 -380 -1038
-240 -653 -523 -1426 -523 -1431 0 -2 -520 -4 -1155 -4 -635 0 -1155 2 -1155
5 0 2 83 233 184 512 101 279 279 772 396 1095 116 323 237 659 269 745 l58
158 371 3 c222 1 372 -1 372 -7 0 -11 -421 -1166 -594 -1629 -25 -68 -46 -129
-46 -137 0 -13 93 -15 690 -15 668 0 690 1 700 19 5 11 62 165 125 343 64 177
236 653 382 1057 l267 734 120 88 c66 49 123 89 127 89 3 0 -90 -264 -208
-587z"/>
</g>
</svg>
